<?xml version="1.0" encoding="UTF-8" standalone="no"?>
<svg
   width="15.24cm"
   height="15.24cm"
   viewBox="0 0 575.99999 575.99999"
   version="1.1"
   id="svg161"
   sodipodi:docname="TC - Haplonet - Edited.svg"
   xml:space="preserve"
   inkscape:version="1.4.2 (f4327f4, 2025-05-13)"
   xmlns:inkscape="http://www.inkscape.org/namespaces/inkscape"
   xmlns:sodipodi="http://sodipodi.sourceforge.net/DTD/sodipodi-0.dtd"
   xmlns="http://www.w3.org/2000/svg"
   xmlns:svg="http://www.w3.org/2000/svg"><sodipodi:namedview
     id="namedview161"
     pagecolor="#ffffff"
     bordercolor="#000000"
     borderopacity="0.25"
     inkscape:showpageshadow="2"
     inkscape:pageopacity="0.0"
     inkscape:pagecheckerboard="0"
     inkscape:deskcolor="#d1d1d1"
     inkscape:zoom="1.9010417"
     inkscape:cx="310.61918"
     inkscape:cy="251.17808"
     inkscape:window-width="2560"
     inkscape:window-height="1334"
     inkscape:window-x="2293"
     inkscape:window-y="-11"
     inkscape:window-maximized="1"
     inkscape:current-layer="svg161"
     inkscape:document-units="cm" /><defs
     id="defs3"><g
       id="g3"><g
         id="glyph-0-0"><path
           d="M 0.820312,0 V -8.589844 H 2.554688 V 0 Z m 0,0"
           id="path1" /></g><g
         id="glyph-0-1"><path
           d="M 3.0625,0 -0.0078125,-8.589844 H 1.875 l 2.171875,6.355469 2.105469,-6.355469 H 7.992188 L 4.914062,0 Z m 0,0"
           id="path2" /></g><g
         id="glyph-0-2"><path
           d="M 0,0 2.9375,-4.484375 0.273438,-8.589844 h 2.03125 l 1.71875,2.761719 1.6875,-2.761719 H 7.722656 L 5.050781,-4.417969 7.984375,0 H 5.894531 L 3.992188,-2.96875 2.078125,0 Z m 0,0"
           id="path3" /></g></g></defs><path
     fill="none"
     stroke-width="0.75"
     stroke-linecap="round"
     stroke-linejoin="round"
     stroke="#000000"
     stroke-opacity="1"
     stroke-miterlimit="10"
     d="m 282.52344,276.15625 48.4375,20.06641"
     id="path4" /><path
     fill="none"
     stroke-width="0.75"
     stroke-linecap="round"
     stroke-linejoin="round"
     stroke="#000000"
     stroke-opacity="1"
     stroke-miterlimit="10"
     d="m 305.35864,326.46923 25.6023,-30.24657"
     id="path5"
     sodipodi:nodetypes="cc" /><path
     fill="none"
     stroke-width="0.75"
     stroke-linecap="round"
     stroke-linejoin="round"
     stroke="#000000"
     stroke-opacity="1"
     stroke-miterlimit="10"
     d="M 383.39062,296.22266 H 330.96094"
     id="path6" /><path
     fill="none"
     stroke-width="0.75"
     stroke-linecap="round"
     stroke-linejoin="round"
     stroke="#000000"
     stroke-opacity="1"
     stroke-miterlimit="10"
     d="m 383.39062,296.22266 -34.39453,39.5664"
     id="path7" /><path
     fill="none"
     stroke-width="0.75"
     stroke-linecap="round"
     stroke-linejoin="round"
     stroke="#000000"
     stroke-opacity="1"
     stroke-miterlimit="10"
     d="m 228.03125,239.74609 54.49219,36.41016"
     id="path8" /><path
     fill="none"
     stroke-width="0.75"
     stroke-linecap="round"
     stroke-linejoin="round"
     stroke="#000000"
     stroke-opacity="1"
     stroke-miterlimit="10"
     d="m 255.33134,203.48706 -27.30009,36.25903"
     id="path9"
     sodipodi:nodetypes="cc" /><path
     fill="none"
     stroke-width="0.75"
     stroke-linecap="round"
     stroke-linejoin="round"
     stroke="#000000"
     stroke-opacity="1"
     stroke-miterlimit="10"
     d="m 218.37065,190.80551 9.6606,48.94058"
     id="path10"
     sodipodi:nodetypes="cc" /><path
     fill="none"
     stroke-width="0.75"
     stroke-linecap="round"
     stroke-linejoin="round"
     stroke="#000000"
     stroke-opacity="1"
     stroke-miterlimit="10"
     d="m 143.19531,178.10937 8.6853,-48.03433"
     id="path11"
     sodipodi:nodetypes="cc" /><path
     fill="none"
     stroke-width="0.75"
     stroke-linecap="round"
     stroke-linejoin="round"
     stroke="#000000"
     stroke-opacity="1"
     stroke-miterlimit="10"
     d="m 90.175781,139.58984 53.019529,38.51953"
     id="path12" /><path
     fill="none"
     stroke-width="0.75"
     stroke-linecap="round"
     stroke-linejoin="round"
     stroke="#000000"
     stroke-opacity="1"
     stroke-miterlimit="10"
     d="m 383.39062,296.22266 16.20313,49.86328"
     id="path13" /><path
     fill="none"
     stroke-width="0.75"
     stroke-linecap="round"
     stroke-linejoin="round"
     stroke="#000000"
     stroke-opacity="1"
     stroke-miterlimit="10"
     d="m 143.19531,178.10937 84.83594,61.63672"
     id="path14" /><path
     fill="none"
     stroke-width="0.75"
     stroke-linecap="round"
     stroke-linejoin="round"
     stroke="#000000"
     stroke-opacity="1"
     stroke-miterlimit="10"
     d="m 128.36356,229.80087 99.66769,9.94522"
     id="path15"
     sodipodi:nodetypes="cc" /><path
     fill="none"
     stroke-width="0.75"
     stroke-linecap="round"
     stroke-linejoin="round"
     stroke="#000000"
     stroke-opacity="1"
     stroke-miterlimit="10"
     d="m 154.42392,267.96921 73.60733,-28.22312"
     id="path16"
     sodipodi:nodetypes="cc" /><path
     fill="none"
     stroke-width="0.75"
     stroke-linecap="round"
     stroke-linejoin="round"
     stroke="#000000"
     stroke-opacity="1"
     stroke-miterlimit="10"
     d="M 514.625,424.0625 452.63672,356.41797"
     id="path17" /><path
     fill="none"
     stroke-width="0.75"
     stroke-linecap="round"
     stroke-linejoin="round"
     stroke="#000000"
     stroke-opacity="1"
     stroke-miterlimit="10"
     d="m 383.39062,296.22266 69.2461,60.19531"
     id="path18" /><path
     fill="none"
     stroke-width="0.75"
     stroke-linecap="round"
     stroke-linejoin="round"
     stroke="#000000"
     stroke-opacity="1"
     stroke-miterlimit="10"
     d="m 383.39062,296.22266 78.59766,2.74218"
     id="path19" /><path
     fill="none"
     stroke-width="0.75"
     stroke-linecap="round"
     stroke-linejoin="round"
     stroke="#000000"
     stroke-opacity="1"
     stroke-miterlimit="10"
     d="m 502.45703,193.62891 -61.54687,48.95703"
     id="path20" /><path
     fill="none"
     stroke-width="0.75"
     stroke-linecap="round"
     stroke-linejoin="round"
     stroke="#000000"
     stroke-opacity="1"
     stroke-miterlimit="10"
     d="m 383.39062,296.22266 57.51954,-53.63672"
     id="path21" /><path
     fill="none"
     stroke-width="0.75"
     stroke-linecap="round"
     stroke-linejoin="round"
     stroke="#000000"
     stroke-opacity="1"
     stroke-miterlimit="10"
     d="m 383.39062,296.22266 2.7461,-78.59766"
     id="path22" /><path
     fill="none"
     stroke-width="0.75"
     stroke-linecap="round"
     stroke-linejoin="round"
     stroke="#000000"
     stroke-opacity="1"
     stroke-miterlimit="10"
     d="M 383.39062,296.22266 332.79571,178.31024"
     id="path23"
     sodipodi:nodetypes="cc" /><path
     fill-rule="nonzero"
     fill="#000000"
     fill-opacity="1"
     stroke-width="0.75"
     stroke-linecap="round"
     stroke-linejoin="round"
     stroke="#000000"
     stroke-opacity="1"
     stroke-miterlimit="10"
     d="m 308.48828,286.1875 c 0,2.33203 -3.49609,2.33203 -3.49609,0 0,-2.32813 3.49609,-2.32813 3.49609,0"
     id="path55" /><path
     fill-rule="nonzero"
     fill="#000000"
     fill-opacity="1"
     stroke-width="0.75"
     stroke-linecap="round"
     stroke-linejoin="round"
     stroke="#000000"
     stroke-opacity="1"
     stroke-miterlimit="10"
     d="m 316.68397,314.89663 c 0,2.32812 -3.49219,2.32812 -3.49219,0 0,-2.33203 3.49219,-2.33203 3.49219,0"
     id="path56" /><path
     fill-rule="nonzero"
     fill="#000000"
     fill-opacity="1"
     stroke-width="0.75"
     stroke-linecap="round"
     stroke-linejoin="round"
     stroke="#000000"
     stroke-opacity="1"
     stroke-miterlimit="10"
     d="m 358.92578,296.22266 c 0,2.32812 -3.49609,2.32812 -3.49609,0 0,-2.33204 3.49609,-2.33204 3.49609,0"
     id="path57" /><path
     fill-rule="nonzero"
     fill="#000000"
     fill-opacity="1"
     stroke-width="0.75"
     stroke-linecap="round"
     stroke-linejoin="round"
     stroke="#000000"
     stroke-opacity="1"
     stroke-miterlimit="10"
     d="m 367.94141,316.00391 c 0,2.33203 -3.4961,2.33203 -3.4961,0 0,-2.32813 3.4961,-2.32813 3.4961,0"
     id="path58" /><path
     fill-rule="nonzero"
     fill="#000000"
     fill-opacity="1"
     stroke-width="0.75"
     stroke-linecap="round"
     stroke-linejoin="round"
     stroke="#000000"
     stroke-opacity="1"
     stroke-miterlimit="10"
     d="m 262.47266,261.59375 c 0,2.32812 -3.4961,2.32812 -3.4961,0 0,-2.33203 3.4961,-2.33203 3.4961,0"
     id="path59" /><path
     fill-rule="nonzero"
     fill="#000000"
     fill-opacity="1"
     stroke-width="0.75"
     stroke-linecap="round"
     stroke-linejoin="round"
     stroke="#000000"
     stroke-opacity="1"
     stroke-miterlimit="10"
     d="m 251.46076,211.03447 c 0,2.32813 -3.49609,2.32813 -3.49609,0 0,-2.33203 3.49609,-2.33203 3.49609,0"
     id="path60" /><path
     fill-rule="nonzero"
     fill="#000000"
     fill-opacity="1"
     stroke-width="0.75"
     stroke-linecap="round"
     stroke-linejoin="round"
     stroke="#000000"
     stroke-opacity="1"
     stroke-miterlimit="10"
     d="m 222.69143,204.27827 c 0,2.33203 -3.49609,2.33203 -3.49609,0 0,-2.32813 3.49609,-2.32813 3.49609,0"
     id="path61" /><path
     fill-rule="nonzero"
     fill="#000000"
     fill-opacity="1"
     stroke-width="0.75"
     stroke-linecap="round"
     stroke-linejoin="round"
     stroke="#000000"
     stroke-opacity="1"
     stroke-miterlimit="10"
     d="m 113.60223,155.60672 c 0,2.33203 -3.4961,2.33203 -3.4961,0 0,-2.32812 3.4961,-2.32812 3.4961,0"
     id="path62" /><path
     fill-rule="nonzero"
     fill="#000000"
     fill-opacity="1"
     stroke-width="0.75"
     stroke-linecap="round"
     stroke-linejoin="round"
     stroke="#000000"
     stroke-opacity="1"
     stroke-miterlimit="10"
     d="m 151.57143,141.08667 c 0,2.33203 -3.49218,2.33203 -3.49218,0 0,-2.32812 3.49218,-2.32812 3.49218,0"
     id="path63" /><path
     fill-rule="nonzero"
     fill="#000000"
     fill-opacity="1"
     stroke-width="0.75"
     stroke-linecap="round"
     stroke-linejoin="round"
     stroke="#000000"
     stroke-opacity="1"
     stroke-miterlimit="10"
     d="m 393.23828,321.15234 c 0,2.33203 -3.49219,2.33203 -3.49219,0 0,-2.32812 3.49219,-2.32812 3.49219,0"
     id="path64" /><path
     fill-rule="nonzero"
     fill="#000000"
     fill-opacity="1"
     stroke-width="0.75"
     stroke-linecap="round"
     stroke-linejoin="round"
     stroke="#000000"
     stroke-opacity="1"
     stroke-miterlimit="10"
     d="m 180.19925,203.52483 c 0,2.32812 -3.49609,2.32812 -3.49609,0 0,-2.33203 3.49609,-2.33203 3.49609,0"
     id="path65" /><path
     fill-rule="nonzero"
     fill="#000000"
     fill-opacity="1"
     stroke-width="0.75"
     stroke-linecap="round"
     stroke-linejoin="round"
     stroke="#000000"
     stroke-opacity="1"
     stroke-miterlimit="10"
     d="m 195.17704,214.33064 c 0,2.33203 -3.4961,2.33203 -3.4961,0 0,-2.32813 3.4961,-2.32813 3.4961,0"
     id="path66" /><path
     fill-rule="nonzero"
     fill="#000000"
     fill-opacity="1"
     stroke-width="0.75"
     stroke-linecap="round"
     stroke-linejoin="round"
     stroke="#000000"
     stroke-opacity="1"
     stroke-miterlimit="10"
     d="m 153.56751,232.5366 c 0,2.33203 -3.49609,2.33203 -3.49609,0 0,-2.32812 3.49609,-2.32812 3.49609,0"
     id="path67" /><path
     fill-rule="nonzero"
     fill="#000000"
     fill-opacity="1"
     stroke-width="0.75"
     stroke-linecap="round"
     stroke-linejoin="round"
     stroke="#000000"
     stroke-opacity="1"
     stroke-miterlimit="10"
     d="m 179.7551,235.00855 c 0,2.33203 -3.49218,2.33203 -3.49218,0 0,-2.32812 3.49218,-2.32812 3.49218,0"
     id="path68" /><path
     fill-rule="nonzero"
     fill="#000000"
     fill-opacity="1"
     stroke-width="0.75"
     stroke-linecap="round"
     stroke-linejoin="round"
     stroke="#000000"
     stroke-opacity="1"
     stroke-miterlimit="10"
     d="m 174.12805,260.99352 c 0,2.33203 -3.49609,2.33203 -3.49609,0 0,-2.33203 3.49609,-2.33203 3.49609,0"
     id="path69" /><path
     fill-rule="nonzero"
     fill="#000000"
     fill-opacity="1"
     stroke-width="0.75"
     stroke-linecap="round"
     stroke-linejoin="round"
     stroke="#000000"
     stroke-opacity="1"
     stroke-miterlimit="10"
     d="m 189.90582,254.94203 c 0,2.32812 -3.49609,2.32812 -3.49609,0 0,-2.33203 3.49609,-2.33203 3.49609,0"
     id="path70" /><path
     fill-rule="nonzero"
     fill="#000000"
     fill-opacity="1"
     stroke-width="0.75"
     stroke-linecap="round"
     stroke-linejoin="round"
     stroke="#000000"
     stroke-opacity="1"
     stroke-miterlimit="10"
     d="m 492.23828,397.72656 c 0,2.32813 -3.49219,2.32813 -3.49219,0 0,-2.33203 3.49219,-2.33203 3.49219,0"
     id="path71" /><path
     fill-rule="nonzero"
     fill="#000000"
     fill-opacity="1"
     stroke-width="0.75"
     stroke-linecap="round"
     stroke-linejoin="round"
     stroke="#000000"
     stroke-opacity="1"
     stroke-miterlimit="10"
     d="m 487.375,392.41797 c 0,2.32812 -3.49609,2.32812 -3.49609,0 0,-2.33203 3.49609,-2.33203 3.49609,0"
     id="path72" /><path
     fill-rule="nonzero"
     fill="#000000"
     fill-opacity="1"
     stroke-width="0.75"
     stroke-linecap="round"
     stroke-linejoin="round"
     stroke="#000000"
     stroke-opacity="1"
     stroke-miterlimit="10"
     d="m 407.51172,315.57617 c 0,2.33203 -3.49219,2.33203 -3.49219,0 0,-2.32812 3.49219,-2.32812 3.49219,0"
     id="path73" /><path
     fill-rule="nonzero"
     fill="#000000"
     fill-opacity="1"
     stroke-width="0.75"
     stroke-linecap="round"
     stroke-linejoin="round"
     stroke="#000000"
     stroke-opacity="1"
     stroke-miterlimit="10"
     d="m 420.87495,326.9729 c 0,2.33203 -3.4961,2.33203 -3.4961,0 0,-2.32812 3.4961,-2.32812 3.4961,0"
     id="path74" /><path
     fill-rule="nonzero"
     fill="#000000"
     fill-opacity="1"
     stroke-width="0.75"
     stroke-linecap="round"
     stroke-linejoin="round"
     stroke="#000000"
     stroke-opacity="1"
     stroke-miterlimit="10"
     d="m 415.0013,297.46875 c 0,2.32812 -3.49609,2.32812 -3.49609,0 0,-2.33203 3.49609,-2.33203 3.49609,0"
     id="path75" /><path
     fill-rule="nonzero"
     fill="#000000"
     fill-opacity="1"
     stroke-width="0.75"
     stroke-linecap="round"
     stroke-linejoin="round"
     stroke="#000000"
     stroke-opacity="1"
     stroke-miterlimit="10"
     d="m 433.8776,297.71875 c 0,2.33203 -3.49609,2.33203 -3.49609,0 0,-2.32813 3.49609,-2.32813 3.49609,0"
     id="path76" /><path
     fill-rule="nonzero"
     fill="#000000"
     fill-opacity="1"
     stroke-width="0.75"
     stroke-linecap="round"
     stroke-linejoin="round"
     stroke="#000000"
     stroke-opacity="1"
     stroke-miterlimit="10"
     d="m 480.16015,212.81708 c 0,2.33203 -3.49609,2.33203 -3.49609,0 0,-2.32813 3.49609,-2.32813 3.49609,0"
     id="path77" /><path
     fill-rule="nonzero"
     fill="#000000"
     fill-opacity="1"
     stroke-width="0.75"
     stroke-linecap="round"
     stroke-linejoin="round"
     stroke="#000000"
     stroke-opacity="1"
     stroke-miterlimit="10"
     d="m 466.3086,223.39386 c 0,2.32812 -3.49609,2.32812 -3.49609,0 0,-2.33203 3.49609,-2.33203 3.49609,0"
     id="path78" /><path
     fill-rule="nonzero"
     fill="#000000"
     fill-opacity="1"
     stroke-width="0.75"
     stroke-linecap="round"
     stroke-linejoin="round"
     stroke="#000000"
     stroke-opacity="1"
     stroke-miterlimit="10"
     d="m 407.97396,274.68164 c 0,2.32813 -3.49609,2.32813 -3.49609,0 0,-2.33203 3.49609,-2.33203 3.49609,0"
     id="path79" /><path
     fill-rule="nonzero"
     fill="#000000"
     fill-opacity="1"
     stroke-width="0.75"
     stroke-linecap="round"
     stroke-linejoin="round"
     stroke="#000000"
     stroke-opacity="1"
     stroke-miterlimit="10"
     d="m 419.82291,264.12598 c 0,2.32812 -3.49609,2.32812 -3.49609,0 0,-2.33203 3.49609,-2.33203 3.49609,0"
     id="path80" /><path
     fill-rule="nonzero"
     fill="#000000"
     fill-opacity="1"
     stroke-width="0.75"
     stroke-linecap="round"
     stroke-linejoin="round"
     stroke="#000000"
     stroke-opacity="1"
     stroke-miterlimit="10"
     d="m 386.38672,266.3584 c 0,2.33203 -3.4961,2.33203 -3.4961,0 0,-2.32813 3.4961,-2.32813 3.4961,0"
     id="path81" /><path
     fill-rule="nonzero"
     fill="#000000"
     fill-opacity="1"
     stroke-width="0.75"
     stroke-linecap="round"
     stroke-linejoin="round"
     stroke="#000000"
     stroke-opacity="1"
     stroke-miterlimit="10"
     d="m 386.63672,247.48242 c 0,2.33203 -3.4961,2.33203 -3.4961,0 0,-2.32812 3.4961,-2.32812 3.4961,0"
     id="path82" /><path
     fill-rule="nonzero"
     fill="#000000"
     fill-opacity="1"
     stroke-width="0.75"
     stroke-linecap="round"
     stroke-linejoin="round"
     stroke="#000000"
     stroke-opacity="1"
     stroke-miterlimit="10"
     d="m 371.39169,264.55996 c 0,2.33203 -3.4961,2.33203 -3.4961,0 0,-2.33203 3.4961,-2.33203 3.4961,0"
     id="path83" /><path
     fill-rule="nonzero"
     fill="#000000"
     fill-opacity="1"
     stroke-width="0.75"
     stroke-linecap="round"
     stroke-linejoin="round"
     stroke="#000000"
     stroke-opacity="1"
     stroke-miterlimit="10"
     d="m 362.57937,243.88262 c 0,2.33203 -3.49609,2.33203 -3.49609,0 0,-2.32813 3.49609,-2.32813 3.49609,0"
     id="path84" /><path
     fill-rule="nonzero"
     fill="#000000"
     fill-opacity="1"
     stroke-width="0.75"
     stroke-linecap="round"
     stroke-linejoin="round"
     stroke="#000000"
     stroke-opacity="1"
     stroke-miterlimit="10"
     d="m 353.63555,223.21113 c 0,2.32813 -3.49609,2.32813 -3.49609,0 0,-2.33203 3.49609,-2.33203 3.49609,0"
     id="path85" /><path
     fill-rule="nonzero"
     fill="#000000"
     fill-opacity="1"
     stroke-width="0.75"
     stroke-linecap="round"
     stroke-linejoin="round"
     stroke="#000000"
     stroke-opacity="1"
     stroke-miterlimit="10"
     d="m 344.82322,202.53379 c 0,2.33203 -3.49609,2.33203 -3.49609,0 0,-2.33203 3.49609,-2.33203 3.49609,0"
     id="path86"
     sodipodi:nodetypes="csc" /><path
     fill-rule="nonzero"
     fill="rgb(100%, 100%, 100%)"
     fill-opacity="1"
     stroke-width="0.75"
     stroke-linecap="round"
     stroke-linejoin="round"
     stroke="rgb(0%, 0%, 0%)"
     stroke-opacity="1"
     stroke-miterlimit="10"
     d="m 344.07031,296.22266 c 0,7.23828 -5.87109,13.10546 -13.10937,13.10546 -7.23828,0 -13.10547,-5.86718 -13.10547,-13.10546 0,-7.24219 5.86719,-13.10938 13.10547,-13.10938 7.23828,0 13.10937,5.86719 13.10937,13.10938"
     id="path87"
     style="fill:#f68b22;fill-opacity:1;stroke:#000000;stroke-opacity:1" /><path
     fill-rule="nonzero"
     fill="rgb(100%, 100%, 100%)"
     fill-opacity="1"
     stroke-width="0.75"
     stroke-linecap="round"
     stroke-linejoin="round"
     stroke="rgb(0%, 0%, 0%)"
     stroke-opacity="1"
     stroke-miterlimit="10"
     d="m 362.10156,335.78906 c 0,7.24219 -5.86719,13.10938 -13.10547,13.10938 -7.24218,0 -13.10937,-5.86719 -13.10937,-13.10938 0,-7.23828 5.86719,-13.10547 13.10937,-13.10547 7.23828,0 13.10547,5.86719 13.10547,13.10547"
     id="path88"
     style="fill:#f68b22;fill-opacity:1;stroke:#000000;stroke-opacity:1" /><path
     fill-rule="nonzero"
     fill="rgb(100%, 100%, 100%)"
     fill-opacity="1"
     stroke-width="0.75"
     stroke-linecap="round"
     stroke-linejoin="round"
     stroke="rgb(0%, 0%, 0%)"
     stroke-opacity="1"
     stroke-miterlimit="10"
     d="m 295.62891,276.15625 c 0,7.23828 -5.86719,13.10937 -13.10547,13.10937 -7.24219,0 -13.10938,-5.87109 -13.10938,-13.10937 0,-7.23828 5.86719,-13.10547 13.10938,-13.10547 7.23828,0 13.10547,5.86719 13.10547,13.10547"
     id="path89"
     style="fill:#f68b22;fill-opacity:1;stroke:#000000;stroke-opacity:1" /><path
     fill-rule="nonzero"
     fill="rgb(100%, 100%, 100%)"
     fill-opacity="1"
     stroke-width="0.75"
     stroke-linecap="round"
     stroke-linejoin="round"
     stroke="rgb(0%, 0%, 0%)"
     stroke-opacity="1"
     stroke-miterlimit="10"
     d="m 254.24609,239.74609 c 0,14.47657 -11.73828,26.21485 -26.21484,26.21485 -14.48047,0 -26.21875,-11.73828 -26.21875,-26.21485 0,-14.47656 11.73828,-26.21484 26.21875,-26.21484 14.47656,0 26.21484,11.73828 26.21484,26.21484"
     id="path90"
     style="fill:#f68b22;fill-opacity:1;stroke:#000000;stroke-opacity:1" /><path
     fill-rule="nonzero"
     fill="#ffffff"
     fill-opacity="1"
     stroke-width="0.75"
     stroke-linecap="round"
     stroke-linejoin="round"
     stroke="#000000"
     stroke-opacity="1"
     stroke-miterlimit="10"
     d="m 274.48611,193.40234 c 0,7.24219 -5.86718,13.10938 -13.10546,13.10938 -7.23829,0 -13.10938,-5.86719 -13.10938,-13.10938 0,-7.23828 5.87109,-13.10547 13.10938,-13.10547 7.23828,0 13.10546,5.86719 13.10546,13.10547"
     id="path91"
     style="fill:#f68b22;fill-opacity:1;stroke:#000000;stroke-opacity:1" /><path
     fill-rule="nonzero"
     fill="rgb(100%, 100%, 100%)"
     fill-opacity="1"
     stroke-width="0.75"
     stroke-linecap="round"
     stroke-linejoin="round"
     stroke="#000000"
     stroke-opacity="1"
     stroke-miterlimit="10"
     d="m 169.41016,178.10937 c 0,14.48047 -11.73829,26.21485 -26.21485,26.21485 -14.47656,0 -26.21484,-11.73438 -26.21484,-26.21485 0,-14.47656 11.73828,-26.21484 26.21484,-26.21484 14.47656,0 26.21485,11.73828 26.21485,26.21484"
     id="path94"
     style="fill:#f68b22;fill-opacity:1;stroke:#000000;stroke-opacity:1"
     sodipodi:nodetypes="csssc" /><path
     fill-rule="nonzero"
     fill="rgb(100%, 100%, 100%)"
     fill-opacity="1"
     stroke-width="0.75"
     stroke-linecap="round"
     stroke-linejoin="round"
     stroke="rgb(0%, 0%, 0%)"
     stroke-opacity="1"
     stroke-miterlimit="10"
     d="m 103.28125,139.58984 c 0,7.23828 -5.867188,13.10547 -13.105469,13.10547 -7.242187,0 -13.109375,-5.86719 -13.109375,-13.10547 0,-7.24218 5.867188,-13.10937 13.109375,-13.10937 7.238281,0 13.105469,5.86719 13.105469,13.10937"
     id="path95"
     style="fill:#f68b22;fill-opacity:1;stroke:#000000;stroke-opacity:1" /><path
     fill-rule="nonzero"
     fill="rgb(100%, 100%, 100%)"
     fill-opacity="1"
     stroke-width="0.75"
     stroke-linecap="round"
     stroke-linejoin="round"
     stroke="rgb(0%, 0%, 0%)"
     stroke-opacity="1"
     stroke-miterlimit="10"
     d="m 478.85156,356.41797 c 0,14.47656 -11.73437,26.21484 -26.21484,26.21484 -14.47656,0 -26.21485,-11.73828 -26.21485,-26.21484 0,-14.48047 11.73829,-26.21875 26.21485,-26.21875 14.48047,0 26.21484,11.73828 26.21484,26.21875"
     id="path96"
     style="fill:#f68b22;fill-opacity:1;stroke:#000000;stroke-opacity:1" /><path
     fill-rule="nonzero"
     fill="rgb(100%, 100%, 100%)"
     fill-opacity="1"
     stroke-width="0.75"
     stroke-linecap="round"
     stroke-linejoin="round"
     stroke="rgb(0%, 0%, 0%)"
     stroke-opacity="1"
     stroke-miterlimit="10"
     d="m 527.73437,424.0625 c 0,7.24219 -5.87109,13.10937 -13.10937,13.10937 -7.23828,0 -13.10547,-5.86718 -13.10547,-13.10937 0,-7.23828 5.86719,-13.10547 13.10547,-13.10547 7.23828,0 13.10937,5.86719 13.10937,13.10547"
     id="path97"
     style="fill:#f68b22;fill-opacity:1;stroke:#000000;stroke-opacity:1" /><path
     fill-rule="nonzero"
     fill="rgb(100%, 100%, 100%)"
     fill-opacity="1"
     stroke-width="0.75"
     stroke-linecap="round"
     stroke-linejoin="round"
     stroke="#000000"
     stroke-opacity="1"
     stroke-miterlimit="10"
     d="m 128.27703,227.95977 c 0,14.47656 -11.73828,26.21484 -26.21484,26.21484 -14.476563,0 -26.214844,-11.73828 -26.214844,-26.21484 0,-14.48047 11.738281,-26.21484 26.214844,-26.21484 14.47656,0 26.21484,11.73437 26.21484,26.21484"
     id="path98"
     style="fill:#f68b22;fill-opacity:1;stroke:#000000;stroke-opacity:1" /><path
     fill-rule="nonzero"
     fill="rgb(100%, 100%, 100%)"
     fill-opacity="1"
     stroke-width="0.75"
     stroke-linecap="round"
     stroke-linejoin="round"
     stroke="rgb(0%, 0%, 0%)"
     stroke-opacity="1"
     stroke-miterlimit="10"
     d="m 475.09766,298.96484 c 0,7.23828 -5.8711,13.10938 -13.10938,13.10938 -7.23828,0 -13.10547,-5.8711 -13.10547,-13.10938 0,-7.23828 5.86719,-13.10547 13.10547,-13.10547 7.23828,0 13.10938,5.86719 13.10938,13.10547"
     id="path99"
     style="fill:#f68b22;fill-opacity:1;stroke:#000000;stroke-opacity:1" /><path
     fill-rule="nonzero"
     fill="rgb(100%, 100%, 100%)"
     fill-opacity="1"
     stroke-width="0.75"
     stroke-linecap="round"
     stroke-linejoin="round"
     stroke="rgb(0%, 0%, 0%)"
     stroke-opacity="1"
     stroke-miterlimit="10"
     d="m 454.01562,242.58594 c 0,7.23828 -5.86718,13.10547 -13.10546,13.10547 -7.23829,0 -13.10938,-5.86719 -13.10938,-13.10547 0,-7.23828 5.87109,-13.10938 13.10938,-13.10938 7.23828,0 13.10546,5.8711 13.10546,13.10938"
     id="path100"
     style="fill:#f68b22;fill-opacity:1;stroke:#000000;stroke-opacity:1" /><path
     fill-rule="nonzero"
     fill="rgb(100%, 100%, 100%)"
     fill-opacity="1"
     stroke-width="0.75"
     stroke-linecap="round"
     stroke-linejoin="round"
     stroke="rgb(0%, 0%, 0%)"
     stroke-opacity="1"
     stroke-miterlimit="10"
     d="m 515.56641,193.62891 c 0,7.23828 -5.8711,13.10546 -13.10938,13.10546 -7.23828,0 -13.10547,-5.86718 -13.10547,-13.10546 0,-7.24219 5.86719,-13.10938 13.10547,-13.10938 7.23828,0 13.10938,5.86719 13.10938,13.10938"
     id="path101"
     style="fill:#f68b22;fill-opacity:1;stroke:#000000;stroke-opacity:1" /><path
     fill-rule="nonzero"
     fill="rgb(100%, 100%, 100%)"
     fill-opacity="1"
     stroke-width="0.75"
     stroke-linecap="round"
     stroke-linejoin="round"
     stroke="rgb(0%, 0%, 0%)"
     stroke-opacity="1"
     stroke-miterlimit="10"
     d="m 399.24219,217.625 c 0,7.23828 -5.86719,13.10547 -13.10547,13.10547 -7.23828,0 -13.10938,-5.86719 -13.10938,-13.10547 0,-7.24219 5.8711,-13.10938 13.10938,-13.10938 7.23828,0 13.10547,5.86719 13.10547,13.10938"
     id="path102"
     style="fill:#f68b22;fill-opacity:1;stroke:#000000;stroke-opacity:1" /><path
     fill-rule="nonzero"
     fill="rgb(100%, 100%, 100%)"
     fill-opacity="1"
     stroke-width="0.75"
     stroke-linecap="round"
     stroke-linejoin="round"
     stroke="#000000"
     stroke-opacity="1"
     stroke-miterlimit="10"
     d="m 230.88434,181.53428 c 0,7.23828 -5.86718,13.10547 -13.10547,13.10547 -7.24218,0 -13.10937,-5.86719 -13.10937,-13.10547 0,-7.23828 5.86719,-13.10938 13.10937,-13.10938 7.23829,0 13.10547,5.8711 13.10547,13.10938"
     id="path103"
     style="fill:#f68b22;fill-opacity:1;stroke:#000000;stroke-opacity:1" /><path
     fill-rule="nonzero"
     fill="rgb(100%, 100%, 100%)"
     fill-opacity="1"
     stroke-width="0.75"
     stroke-linecap="round"
     stroke-linejoin="round"
     stroke="rgb(0%, 0%, 0%)"
     stroke-opacity="1"
     stroke-miterlimit="10"
     d="m 412.69922,346.08594 c 0,7.23828 -5.86719,13.10547 -13.10547,13.10547 -7.23828,0 -13.10938,-5.86719 -13.10938,-13.10547 0,-7.23828 5.8711,-13.10938 13.10938,-13.10938 7.23828,0 13.10547,5.8711 13.10547,13.10938"
     id="path105"
     style="fill:#f68b22;fill-opacity:1;stroke:#000000;stroke-opacity:1" /><path
     fill-rule="nonzero"
     fill="rgb(100%, 100%, 100%)"
     fill-opacity="1"
     stroke-width="0.75"
     stroke-linecap="round"
     stroke-linejoin="round"
     stroke="rgb(0%, 0%, 0%)"
     stroke-opacity="1"
     stroke-miterlimit="10"
     d="m 396.5,296.22266 c 0,7.23828 -5.87109,13.10546 -13.10938,13.10546 -7.23828,0 -13.10546,-5.86718 -13.10546,-13.10546 0,-7.24219 5.86718,-13.10938 13.10546,-13.10938 7.23829,0 13.10938,5.86719 13.10938,13.10938"
     id="path107"
     style="fill:#f68b22;fill-opacity:1;stroke:#000000;stroke-opacity:1" /><path
     fill-rule="nonzero"
     fill="#ffffff"
     fill-opacity="1"
     stroke-width="0.75"
     stroke-linecap="round"
     stroke-linejoin="round"
     stroke="#000000"
     stroke-opacity="1"
     stroke-miterlimit="10"
     d="m 314.48794,335.77912 c 0,7.23828 -5.86719,13.10547 -13.10547,13.10547 -7.23828,0 -13.10937,-5.86719 -13.10937,-13.10547 0,-7.24218 5.87109,-13.10937 13.10937,-13.10937 7.23828,0 13.10547,5.86719 13.10547,13.10937"
     id="path92"
     style="fill:#f68b22;fill-opacity:1;stroke:#000000;stroke-opacity:1" /><path
     fill-rule="nonzero"
     fill="rgb(100%, 100%, 100%)"
     fill-opacity="1"
     stroke-width="0.75"
     stroke-linecap="round"
     stroke-linejoin="round"
     stroke="#000000"
     stroke-opacity="1"
     stroke-miterlimit="10"
     d="m 166.16033,117.09391 c 0,7.24219 -5.8711,13.10938 -13.10938,13.10938 -7.23828,0 -13.10547,-5.86719 -13.10547,-13.10938 0,-7.23828 5.86719,-13.10547 13.10547,-13.10547 7.23828,0 13.10938,5.86719 13.10938,13.10547"
     id="path93"
     style="fill:#f68b22;fill-opacity:1;stroke:#000000;stroke-opacity:1" /><text
     xml:space="preserve"
     style="font-size:9.33333px;line-height:1;font-family:arial;-inkscape-font-specification:arial;text-align:center;writing-mode:lr-tb;direction:ltr;text-anchor:middle;fill:#000000;fill-opacity:1;stroke:none;stroke-width:1;stroke-linecap:square;stroke-dasharray:none;paint-order:fill markers stroke"
     x="514.4173"
     y="427.28619"
     id="text165"><tspan
       sodipodi:role="line"
       id="tspan165"
       x="514.4173"
       y="427.28619"
       style="font-size:9.33333px;fill:#000000;fill-opacity:1">11</tspan></text><g
     id="g184"
     transform="translate(414.50959,-248.81096)"><path
       fill-rule="nonzero"
       fill="rgb(100%, 100%, 100%)"
       fill-opacity="1"
       stroke-width="0.75"
       stroke-linecap="round"
       stroke-linejoin="round"
       stroke="rgb(0%, 0%, 0%)"
       stroke-opacity="1"
       stroke-miterlimit="10"
       d="m 102.70424,375.14195 c 0,7.24219 -5.871096,13.10938 -13.109377,13.10938 -7.238281,0 -13.105469,-5.86719 -13.105469,-13.10938 0,-7.23828 5.867188,-13.10547 13.105469,-13.10547 7.238281,0 13.109377,5.86719 13.109377,13.10547"
       id="path165"
       style="fill:none;fill-opacity:1;stroke:#000000;stroke-opacity:1" /><path
       fill-rule="nonzero"
       fill="rgb(100%, 100%, 100%)"
       fill-opacity="1"
       stroke-width="0.75"
       stroke-linecap="round"
       stroke-linejoin="round"
       stroke="rgb(0%, 0%, 0%)"
       stroke-opacity="1"
       stroke-miterlimit="10"
       d="m 115.81166,362.03649 c 0,14.47656 -11.73437,26.21484 -26.214844,26.21484 -14.476563,0 -26.214844,-11.73828 -26.214844,-26.21484 0,-14.48047 11.738281,-26.21875 26.214844,-26.21875 14.480474,0 26.214844,11.73828 26.214844,26.21875"
       id="path166"
       style="fill:none;fill-opacity:1;stroke:#000000;stroke-opacity:1" /><text
       xml:space="preserve"
       style="font-size:9.33333px;line-height:1;font-family:arial;-inkscape-font-specification:arial;text-align:center;writing-mode:lr-tb;direction:ltr;text-anchor:middle;fill:none;fill-opacity:1;stroke:#000000;stroke-width:1;stroke-linecap:square;stroke-dasharray:none;stroke-opacity:1;paint-order:fill markers stroke"
       x="90.385681"
       y="359.68295"
       id="text166"><tspan
         sodipodi:role="line"
         id="tspan166"
         x="90.385681"
         y="359.68295"
         style="font-style:normal;font-variant:normal;font-weight:normal;font-stretch:normal;font-family:arial;-inkscape-font-specification:arial;fill:#000000;fill-opacity:1;stroke:none">n = 1</tspan></text><text
       xml:space="preserve"
       style="font-size:9.33333px;line-height:1;font-family:arial;-inkscape-font-specification:arial;text-align:center;writing-mode:lr-tb;direction:ltr;text-anchor:middle;fill:none;fill-opacity:1;stroke:#000000;stroke-width:1;stroke-linecap:square;stroke-dasharray:none;stroke-opacity:1;paint-order:fill markers stroke"
       x="90.385681"
       y="332.15808"
       id="text167"><tspan
         sodipodi:role="line"
         id="tspan167"
         x="90.385681"
         y="332.15808"
         style="font-style:normal;font-variant:normal;font-weight:normal;font-stretch:normal;font-family:arial;-inkscape-font-specification:arial;fill:#000000;fill-opacity:1;stroke:none">n = 2</tspan></text></g><text
     xml:space="preserve"
     style="font-size:9.33333px;line-height:1;font-family:arial;-inkscape-font-specification:arial;text-align:center;writing-mode:lr-tb;direction:ltr;text-anchor:middle;fill:#000000;fill-opacity:1;stroke:none;stroke-width:1;stroke-linecap:square;stroke-dasharray:none;paint-order:fill markers stroke"
     x="451.92844"
     y="360.14786"
     id="text168"><tspan
       sodipodi:role="line"
       id="tspan168"
       x="451.92844"
       y="360.14786"
       style="font-size:9.33333px;fill:#000000;fill-opacity:1">10</tspan></text><text
     xml:space="preserve"
     style="font-size:9.33333px;line-height:1;font-family:arial;-inkscape-font-specification:arial;text-align:center;writing-mode:lr-tb;direction:ltr;text-anchor:middle;fill:#000000;fill-opacity:1;stroke:none;stroke-width:1;stroke-linecap:square;stroke-dasharray:none;paint-order:fill markers stroke"
     x="331.31152"
     y="299.57486"
     id="text168-9"><tspan
       sodipodi:role="line"
       id="tspan168-4"
       x="331.31152"
       y="299.57486"
       style="font-size:9.33333px;fill:#000000;fill-opacity:1">1</tspan></text><text
     xml:space="preserve"
     style="font-size:9.33333px;line-height:1;font-family:arial;-inkscape-font-specification:arial;text-align:center;writing-mode:lr-tb;direction:ltr;text-anchor:middle;fill:#000000;fill-opacity:1;stroke:none;stroke-width:1;stroke-linecap:square;stroke-dasharray:none;paint-order:fill markers stroke"
     x="349.10352"
     y="339.14517"
     id="text168-9-8"><tspan
       sodipodi:role="line"
       id="tspan168-4-2"
       x="349.10352"
       y="339.14517"
       style="font-size:9.33333px;fill:#000000;fill-opacity:1">2</tspan></text><text
     xml:space="preserve"
     style="font-size:9.33333px;line-height:1;font-family:arial;-inkscape-font-specification:arial;text-align:center;writing-mode:lr-tb;direction:ltr;text-anchor:middle;fill:#000000;fill-opacity:1;stroke:none;stroke-width:1;stroke-linecap:square;stroke-dasharray:none;paint-order:fill markers stroke"
     x="399.30923"
     y="349.43814"
     id="text169"><tspan
       sodipodi:role="line"
       id="tspan169"
       x="399.30923"
       y="349.43814"
       style="font-size:9.33333px;fill:#000000;fill-opacity:1">14</tspan></text><text
     xml:space="preserve"
     style="font-size:9.33333px;line-height:1;font-family:arial;-inkscape-font-specification:arial;text-align:center;writing-mode:lr-tb;direction:ltr;text-anchor:middle;fill:#000000;fill-opacity:1;stroke:none;stroke-width:1;stroke-linecap:square;stroke-dasharray:none;paint-order:fill markers stroke"
     x="461.5993"
     y="302.49445"
     id="text170"><tspan
       sodipodi:role="line"
       id="tspan170"
       x="461.5993"
       y="302.49445"
       style="font-size:9.33333px;fill:#000000;fill-opacity:1">13</tspan></text><text
     xml:space="preserve"
     style="font-size:9.33333px;line-height:1;font-family:arial;-inkscape-font-specification:arial;text-align:center;writing-mode:lr-tb;direction:ltr;text-anchor:middle;fill:#000000;fill-opacity:1;stroke:none;stroke-width:1;stroke-linecap:square;stroke-dasharray:none;paint-order:fill markers stroke"
     x="440.62564"
     y="245.93816"
     id="text168-9-5"><tspan
       sodipodi:role="line"
       id="tspan168-4-5"
       x="440.62564"
       y="245.93816"
       style="font-size:9.33333px;fill:#000000;fill-opacity:1">14</tspan></text><text
     xml:space="preserve"
     style="font-size:9.33333px;line-height:1;font-family:arial;-inkscape-font-specification:arial;text-align:center;writing-mode:lr-tb;direction:ltr;text-anchor:middle;fill:#000000;fill-opacity:1;stroke:none;stroke-width:1;stroke-linecap:square;stroke-dasharray:none;paint-order:fill markers stroke"
     x="502.1377"
     y="196.92415"
     id="text171"><tspan
       sodipodi:role="line"
       id="tspan171"
       x="502.1377"
       y="196.92415"
       style="font-size:9.33333px;fill:#000000;fill-opacity:1">15</tspan></text><text
     xml:space="preserve"
     style="font-size:9.33333px;line-height:1;font-family:arial;-inkscape-font-specification:arial;text-align:center;writing-mode:lr-tb;direction:ltr;text-anchor:middle;fill:#000000;fill-opacity:1;stroke:none;stroke-width:1;stroke-linecap:square;stroke-dasharray:none;paint-order:fill markers stroke"
     x="385.84082"
     y="220.92024"
     id="text172"><tspan
       sodipodi:role="line"
       id="tspan172"
       x="385.84082"
       y="220.92024"
       style="font-size:9.33333px;fill:#000000;fill-opacity:1">16</tspan></text><g
     id="g185"
     transform="translate(-15.622217)"><path
       fill-rule="nonzero"
       fill="rgb(100%, 100%, 100%)"
       fill-opacity="1"
       stroke-width="0.75"
       stroke-linecap="round"
       stroke-linejoin="round"
       stroke="rgb(0%, 0%, 0%)"
       stroke-opacity="1"
       stroke-miterlimit="10"
       d="m 358.17578,170.87109 c 0,7.24219 -5.86719,13.10938 -13.10547,13.10938 -7.24219,0 -13.10937,-5.86719 -13.10937,-13.10938 0,-7.23828 5.86718,-13.10547 13.10937,-13.10547 7.23828,0 13.10547,5.86719 13.10547,13.10547"
       id="path104"
       style="fill:#f68b22;fill-opacity:1;stroke:#000000;stroke-opacity:1" /><text
       xml:space="preserve"
       style="font-size:9.33333px;line-height:1;font-family:arial;-inkscape-font-specification:arial;text-align:center;writing-mode:lr-tb;direction:ltr;text-anchor:middle;fill:#000000;fill-opacity:1;stroke:none;stroke-width:1;stroke-linecap:square;stroke-dasharray:none;paint-order:fill markers stroke"
       x="344.76529"
       y="174.17024"
       id="text173"><tspan
         sodipodi:role="line"
         id="tspan173"
         x="344.76529"
         y="174.17024"
         style="font-size:9.33333px;fill:#000000;fill-opacity:1">18</tspan></text></g><text
     xml:space="preserve"
     style="font-size:9.33333px;line-height:1;font-family:arial;-inkscape-font-specification:arial;text-align:center;writing-mode:lr-tb;direction:ltr;text-anchor:middle;fill:#000000;fill-opacity:1;stroke:none;stroke-width:1;stroke-linecap:square;stroke-dasharray:none;paint-order:fill markers stroke"
     x="301.41925"
     y="339.07437"
     id="text174"><tspan
       sodipodi:role="line"
       id="tspan174"
       x="301.41925"
       y="339.07437"
       style="font-size:9.33333px;fill:#000000;fill-opacity:1">6</tspan></text><text
     xml:space="preserve"
     style="font-size:9.33333px;line-height:1;font-family:arial;-inkscape-font-specification:arial;text-align:center;writing-mode:lr-tb;direction:ltr;text-anchor:middle;fill:#000000;fill-opacity:1;stroke:none;stroke-width:1;stroke-linecap:square;stroke-dasharray:none;paint-order:fill markers stroke"
     x="282.53745"
     y="279.45312"
     id="text175"><tspan
       sodipodi:role="line"
       id="tspan175"
       x="282.53745"
       y="279.45312"
       style="font-size:9.33333px;fill:#000000;fill-opacity:1">3</tspan></text><g
     id="g186"><path
       fill-rule="nonzero"
       fill="#ffffff"
       fill-opacity="1"
       stroke-width="0.75"
       stroke-linecap="round"
       stroke-linejoin="round"
       stroke="#000000"
       stroke-opacity="1"
       stroke-miterlimit="10"
       d="m 158.72528,271.73368 c 0,7.23828 -5.86719,13.10938 -13.10547,13.10938 -7.23828,0 -13.10937,-5.8711 -13.10937,-13.10938 0,-7.23828 5.87109,-13.10547 13.10937,-13.10547 7.23828,0 13.10547,5.86719 13.10547,13.10547"
       id="path106"
       style="fill:#f68b22;fill-opacity:1;stroke:#000000;stroke-opacity:1" /><text
       xml:space="preserve"
       style="font-size:9.33333px;line-height:1;font-family:arial;-inkscape-font-specification:arial;text-align:center;writing-mode:lr-tb;direction:ltr;text-anchor:middle;fill:#000000;fill-opacity:1;stroke:none;stroke-width:1;stroke-linecap:square;stroke-dasharray:none;paint-order:fill markers stroke"
       x="145.70445"
       y="275.03284"
       id="text176"><tspan
         sodipodi:role="line"
         id="tspan176"
         x="145.70445"
         y="275.03284"
         style="font-size:9.33333px;fill:#000000;fill-opacity:1">20</tspan></text></g><text
     xml:space="preserve"
     style="font-size:9.33333px;line-height:1;font-family:arial;-inkscape-font-specification:arial;text-align:center;writing-mode:lr-tb;direction:ltr;text-anchor:middle;fill:#000000;fill-opacity:1;stroke:none;stroke-width:1;stroke-linecap:square;stroke-dasharray:none;paint-order:fill markers stroke"
     x="228.19563"
     y="243.08659"
     id="text177"><tspan
       sodipodi:role="line"
       id="tspan177"
       x="228.19563"
       y="243.08659"
       style="font-size:9.33333px;fill:#000000;fill-opacity:1">4</tspan></text><text
     xml:space="preserve"
     style="font-size:9.33333px;line-height:1;font-family:arial;-inkscape-font-specification:arial;text-align:center;writing-mode:lr-tb;direction:ltr;text-anchor:middle;fill:#000000;fill-opacity:1;stroke:none;stroke-width:1;stroke-linecap:square;stroke-dasharray:none;paint-order:fill markers stroke"
     x="261.37186"
     y="196.64224"
     id="text178"><tspan
       sodipodi:role="line"
       id="tspan178"
       x="261.37186"
       y="196.64224"
       style="font-size:9.33333px;fill:#000000;fill-opacity:1">5</tspan></text><text
     xml:space="preserve"
     style="font-size:9.33333px;line-height:1;font-family:arial;-inkscape-font-specification:arial;text-align:center;writing-mode:lr-tb;direction:ltr;text-anchor:middle;fill:#000000;fill-opacity:1;stroke:none;stroke-width:1;stroke-linecap:square;stroke-dasharray:none;paint-order:fill markers stroke"
     x="217.4807"
     y="184.88649"
     id="text179"><tspan
       sodipodi:role="line"
       id="tspan179"
       x="217.4807"
       y="184.88649"
       style="font-size:9.33333px;fill:#000000;fill-opacity:1">17</tspan></text><text
     xml:space="preserve"
     style="font-size:9.33333px;line-height:1;font-family:arial;-inkscape-font-specification:arial;text-align:center;writing-mode:lr-tb;direction:ltr;text-anchor:middle;fill:#000000;fill-opacity:1;stroke:none;stroke-width:1;stroke-linecap:square;stroke-dasharray:none;paint-order:fill markers stroke"
     x="153.04379"
     y="120.39307"
     id="text180"><tspan
       sodipodi:role="line"
       id="tspan180"
       x="153.04379"
       y="120.39307"
       style="font-size:9.33333px;fill:#000000;fill-opacity:1">7</tspan></text><text
     xml:space="preserve"
     style="font-size:9.33333px;line-height:1;font-family:arial;-inkscape-font-specification:arial;text-align:center;writing-mode:lr-tb;direction:ltr;text-anchor:middle;fill:#000000;fill-opacity:1;stroke:none;stroke-width:1;stroke-linecap:square;stroke-dasharray:none;paint-order:fill markers stroke"
     x="90.185219"
     y="142.88509"
     id="text181"><tspan
       sodipodi:role="line"
       id="tspan181"
       x="90.185219"
       y="142.88509"
       style="font-size:9.33333px;fill:#000000;fill-opacity:1">9</tspan></text><text
     xml:space="preserve"
     style="font-size:9.33333px;line-height:1;font-family:arial;-inkscape-font-specification:arial;text-align:center;writing-mode:lr-tb;direction:ltr;text-anchor:middle;fill:#000000;fill-opacity:1;stroke:none;stroke-width:1;stroke-linecap:square;stroke-dasharray:none;paint-order:fill markers stroke"
     x="101.80014"
     y="231.31393"
     id="text182"><tspan
       sodipodi:role="line"
       id="tspan182"
       x="101.80014"
       y="231.31393"
       style="font-size:9.33333px;fill:#000000;fill-opacity:1">12</tspan></text><text
     xml:space="preserve"
     style="font-size:9.33333px;line-height:1;font-family:arial;-inkscape-font-specification:arial;text-align:center;writing-mode:lr-tb;direction:ltr;text-anchor:middle;fill:#000000;fill-opacity:1;stroke:none;stroke-width:1;stroke-linecap:square;stroke-dasharray:none;paint-order:fill markers stroke"
     x="143.21126"
     y="181.40657"
     id="text183"><tspan
       sodipodi:role="line"
       id="tspan183"
       x="143.21126"
       y="181.40657"
       style="font-size:9.33333px;fill:#000000;fill-opacity:1">8</tspan></text><text
     xml:space="preserve"
     style="font-size:9.33333px;line-height:1;font-family:arial;-inkscape-font-specification:arial;text-align:center;writing-mode:lr-tb;direction:ltr;text-anchor:middle;fill:#000000;fill-opacity:1;stroke:none;stroke-width:1;stroke-linecap:square;stroke-dasharray:none;paint-order:fill markers stroke"
     x="383.04153"
     y="299.72018"
     id="text184"><tspan
       sodipodi:role="line"
       id="tspan184"
       x="383.04153"
       y="299.72018"
       style="font-size:9.33333px;fill:#000000;fill-opacity:1">21</tspan></text></svg>
